<?xml version="1.0" encoding="UTF-8"?>
<svg width="22px" height="22px" viewBox="0 0 22 22" version="1.1" xmlns="http://www.w3.org/2000/svg" xmlns:xlink="http://www.w3.org/1999/xlink">
    <!-- Generator: Sketch 53.2 (72643) - https://sketchapp.com -->
    <title>Group</title>
    <desc>Created with Sketch.</desc>
    <defs>
        <path d="M12.1564227,5.98334121 C11.9609135,6.01363786 11.7540513,5.95340833 11.6036811,5.8026526 C11.3526235,5.55223708 11.3526235,5.14515133 11.6036811,4.89473581 L11.8662963,4.63147847 L11.9831569,4.34960048 L11.9780202,4.28539137 C11.9574733,4.15889943 11.8772119,4.05038604 11.7629197,3.99259784 C11.2826356,3.75245578 10.9468219,3.29657111 10.8607817,2.76620387 L10.8389506,2.49845189 C10.8389506,2.0586195 11.0123152,1.63291311 11.3288661,1.3170043 L11.6036811,1.04218932 C11.7540632,0.89142165 11.9607147,0.831194513 12.1561917,0.861507904 C12.3515912,0.831194513 12.5583967,0.89142165 12.7091644,1.04218932 C12.960222,1.29260484 12.960222,1.69904849 12.7091644,1.95010611 L12.4337073,2.22556318 L12.3206993,2.49845189 L12.325836,2.56073473 C12.3457408,2.68273203 12.4234338,2.78867706 12.5345156,2.84389689 C13.0186523,3.08596523 13.3563922,3.54570245 13.4430745,4.08056432 L13.4649056,4.34960048 C13.4649056,4.79200124 13.2902568,5.22156017 12.9724217,5.54003735 L12.7091644,5.8026526 C12.5587942,5.95340833 12.351932,6.01363786 12.1564227,5.98334121 Z M5.5622461,4.34960048 C5.5622461,4.79200124 5.38759732,5.22156017 5.06976224,5.54003735 L4.80650489,5.8026526 C4.55608937,6.05371022 4.14900362,6.05371022 3.8985881,5.8026526 C3.64753049,5.55223708 3.64753049,5.14515133 3.8985881,4.89473581 L4.16120335,4.63147847 L4.27806393,4.34960048 L4.2729272,4.28539137 C4.25238029,4.15889943 4.1721189,4.05038604 4.05782669,3.99259784 C3.57754256,3.75245578 3.24172892,3.29657111 3.15568872,2.76620387 L3.13385762,2.49845189 C3.13385762,2.0586195 3.30722221,1.63291311 3.62377312,1.3170043 L3.8985881,1.04218932 C4.14900362,0.791131702 4.55544728,0.791131702 4.80650489,1.04218932 C5.0575625,1.29260484 5.0575625,1.69904849 4.80650489,1.95010611 L4.53104782,2.22556318 L4.41803979,2.49845189 L4.42317652,2.56073473 C4.44308134,2.68273203 4.52077436,2.78867706 4.63185612,2.84389689 C5.11599279,3.08596523 5.4537327,3.54570245 5.540415,4.08056432 L5.5622461,4.34960048 Z M9.41479259,4.34960048 C9.41479259,4.79200124 9.24014382,5.22156017 8.92230873,5.54003735 L8.65905139,5.8026526 C8.40863587,6.05371022 8.00155012,6.05371022 7.7511346,5.8026526 C7.50007698,5.55223708 7.50007698,5.14515133 7.7511346,4.89473581 L8.01374985,4.63147847 L8.13061043,4.34960048 L8.1254737,4.28539137 C8.10492678,4.15889943 8.0246654,4.05038604 7.91037319,3.99259784 C7.43008906,3.75245578 7.09427542,3.29657111 7.00823521,2.76620387 L6.98640412,2.49845189 C6.98640412,2.0586195 7.15976871,1.63291311 7.47631961,1.3170043 L7.7511346,1.04218932 C8.00155012,0.791131702 8.40799377,0.791131702 8.65905139,1.04218932 C8.910109,1.29260484 8.910109,1.69904849 8.65905139,1.95010611 L8.38359431,2.22556318 L8.27058628,2.49845189 L8.27572301,2.56073473 C8.29562783,2.68273203 8.37332086,2.78867706 8.48440261,2.84389689 C8.96853929,3.08596523 9.3062792,3.54570245 9.3929615,4.08056432 L9.41479259,4.34960048 Z M16.5522771,16.2539692 C18.3250905,16.2539692 19.759522,14.8163272 19.7627325,13.0435137 C19.759522,11.2707003 18.3250905,9.83305833 16.5522771,9.83305833 L15.910186,9.83305833 L15.910186,16.2539692 L16.5522771,16.2539692 Z M14.6260038,18.1930842 L14.6260038,8.54887616 L1.78418217,8.54887616 L1.78418217,18.1930842 C1.78418217,19.2525345 2.64651049,20.1065157 3.71045541,20.1065157 L12.6997306,20.1065157 C13.7630334,20.1065157 14.6260038,19.2525345 14.6260038,18.1930842 Z M16.5522771,8.54887616 C19.0346012,8.54887616 21.0462726,10.5611896 21.0469146,13.0435137 C21.0462726,15.5258379 19.0346012,17.5381513 16.5522771,17.5381513 L15.910186,17.5381513 L15.910186,18.1930842 C15.910186,19.9652556 14.4731861,21.3906978 12.6997306,21.3906978 L3.71045541,21.3906978 C1.93699984,21.3906978 0.5,19.9652556 0.5,18.1930842 L0.5,7.91705854 C0.5,7.74818858 0.568703746,7.57739235 0.688132687,7.45796341 C0.807561629,7.33853447 0.973221128,7.264694 1.14209108,7.264694 L15.2680949,7.264694 C15.4369649,7.264694 15.6026244,7.33853447 15.7220533,7.45796341 C15.8414822,7.57739235 15.910186,7.74818858 15.910186,7.91705854 L15.910186,8.54887616 L16.5522771,8.54887616 Z" id="path-1"></path>
    </defs>
    <g id="Symbols" stroke="none" stroke-width="1" fill="none" fill-rule="evenodd">
        <g id="icons-/-filter-/-coffee" transform="translate(-3.000000, -1.000000)">
            <g id="Group" transform="translate(3.000000, 1.000000)">
                <path d="M14.6260038,18.1930842 C14.6260038,19.2525345 13.7630334,20.1065157 12.6997306,20.1065157 L3.71045541,20.1065157 C2.64651049,20.1065157 1.78418217,19.2525345 1.78418217,18.1930842 L1.78418217,8.54887616 L14.6260038,8.54887616 L14.6260038,18.1930842 L14.6260038,18.1930842 Z" id="Path" fill="transperant"></path>
                <path d="M14.8948628,18.0054876 C14.8948628,19.0921033 13.6727152,19.7470453 13.0425035,19.7245271 L8.66542013,19.6912718 L8.66542013,8.55153684 L14.8989389,8.55153684 L14.8975471,17.631377 L14.8948628,18.0054876 Z" id="" fill-opacity="0.2" ></path>
                <g id="colors-/-black">
                    <mask id="mask-2" fill="white">
                        <use xlink:href="#path-1"></use>
                    </mask>
                    <use id="Mask" fill="#040614" xlink:href="#path-1"></use>
                    <g mask="url(#mask-2)" fill="#1ce48c" fill-rule="nonzero" id="Rectangle">
                        <g transform="translate(-6.000000, -4.000000)">
                            <rect x="0" y="0" width="30" height="30"></rect>
                        </g>
                    </g>
                </g>
            </g>
        </g>
    </g>
</svg>