<?xml version="1.0" encoding="UTF-8"?>
<svg width="30px" height="24px" viewBox="0 0 30 24" version="1.1" xmlns="http://www.w3.org/2000/svg" xmlns:xlink="http://www.w3.org/1999/xlink">
    <!-- Generator: Sketch 53.2 (72643) - https://sketchapp.com -->
    <title>Group</title>
    <desc>Created with Sketch.</desc>
    <defs>
        <path d="M14.9999988,1.97651837 C20.4554365,1.98275676 24.8763522,6.40367245 24.8825906,11.8591102 C24.8825906,17.3171422 20.4580307,21.7417021 14.9999988,21.7417021 C9.54196682,21.7417021 5.11740692,17.3171422 5.11740692,11.8591102 C5.11740692,6.40107827 9.54196682,1.97651837 14.9999988,1.97651837 Z M14.9999988,20.4877046 C19.7631626,20.482132 23.6230205,16.6222741 23.6285931,11.8591102 C23.6285931,7.09366937 19.7654396,3.23051585 14.9999988,3.23051585 C10.2345579,3.23051585 6.3714044,7.09366937 6.3714044,11.8591102 C6.3714044,16.6245511 10.2345579,20.4877046 14.9999988,20.4877046 Z M15,18.3250371 C11.5067785,18.3250371 8.67496291,15.4932215 8.67496291,12 C8.67496291,8.50677847 11.5067785,5.67496291 15,5.67496291 C18.4932215,5.67496291 21.3250371,8.50677847 21.3250371,12 C21.3250371,15.4932215 18.4932215,18.3250371 15,18.3250371 Z M15,17.0281574 C17.7769746,17.0281574 20.0281574,14.7769746 20.0281574,12 C20.0281574,9.22302536 17.7769746,6.97184262 15,6.97184262 C12.2230254,6.97184262 9.97184262,9.22302536 9.97184262,12 C9.97184262,14.7769746 12.2230254,17.0281574 15,17.0281574 Z M4.12914773,0 L5.11740692,0 L5.11740692,6.4236847 C5.11499804,7.19718281 4.74897154,7.92454157 4.12914773,8.3873557 L4.12914773,22.2358317 C4.12914773,23.0545426 3.46546993,23.7182204 2.64675896,23.7182204 C1.82804799,23.7182204 1.16437018,23.0545426 1.16437018,22.2358317 L1.16437018,8.3873557 C0.544546372,7.92454157 0.178519877,7.19718281 0.176110995,6.4236847 L0.176110995,0 L1.16437018,0 L1.16437018,3.95303674 L2.15262936,3.95303674 L2.15262936,0 L3.14088855,0 L3.14088855,3.95303674 L4.12914773,3.95303674 L4.12914773,0 Z M3.14088855,22.2358317 L3.14088855,8.89433266 L2.15262936,8.89433266 L2.15262936,22.2358317 C2.15262936,22.5087147 2.37387589,22.7299613 2.64675896,22.7299613 C2.91964202,22.7299613 3.14088855,22.5087147 3.14088855,22.2358317 Z M4.12914773,6.4236847 L4.12914773,4.94129592 L1.16437018,4.94129592 L1.16437018,6.4236847 C1.16437018,7.24239567 1.82804799,7.90607348 2.64675896,7.90607348 C3.46546993,7.90607348 4.12914773,7.24239567 4.12914773,6.4236847 Z M29.0742919,0.0938846226 C29.5286441,0.280727375 29.8248748,0.72377632 29.8238865,1.21506467 L29.8238865,22.2358317 C29.8238865,23.0545426 29.1602087,23.7182204 28.3414978,23.7182204 C27.5227868,23.7182204 26.859109,23.0545426 26.859109,22.2358317 L26.859109,12.7564496 C26.268933,12.5478033 25.873444,11.9909193 25.8708498,11.3649806 L25.8708498,4.89929491 C25.8662173,3.19467135 26.5435455,1.55904063 27.7520012,0.356761566 C28.0985713,0.00889433266 28.6210516,-0.0949964141 29.0742919,0.0938846226 Z M28.8356274,22.2358317 L28.8356274,12.8473694 L27.8473682,12.8473694 L27.8473682,22.2358317 C27.8473682,22.5087147 28.0686147,22.7299613 28.3414978,22.7299613 C28.6143808,22.7299613 28.8356274,22.5087147 28.8356274,22.2358317 Z M28.8356274,11.8591102 L28.8356274,1.2155588 C28.8385921,1.12365069 28.7828173,1.04001926 28.6967769,1.00753024 C28.6676851,0.995176999 28.6364931,0.988629782 28.6048688,0.988259185 C28.5465615,0.988876847 28.4910337,1.01333626 28.4511945,1.05595494 C27.4286551,2.07312071 26.855403,3.45699239 26.859109,4.89929491 L26.859109,11.3649806 C26.859109,11.6378637 27.0803555,11.8591102 27.3532386,11.8591102 L28.8356274,11.8591102 Z" id="path-1"></path>
    </defs>
    <g id="Symbols" stroke="none" stroke-width="1" fill="none" fill-rule="evenodd">
        <g id="icons-/-filter-/-comida" transform="translate(3.000000, 0.000000)">
            <g id="Group" transform="translate(-3.000000, 0.000000)">
                <path d="M15.0006044,21.0252232 C10.0401721,21.0252232 6.01894687,17.0039979 6.01894687,12.0435657 C6.01894687,7.08313351 10.0401721,3.06190823 15.0006044,3.06190823 C19.9610366,3.06190823 23.9822619,7.08313351 23.9822619,12.0435657 C23.9764612,17.0016278 19.9586664,21.0194226 15.0006044,21.0252232 Z M4.56062691,4.09471692 L4.92983566,4.09471692 L5,6.4236847 C4.99770786,7.18783876 4.56214098,7.82881116 3.97235509,8.28603438 L3.97235509,21.9672173 C3.97235509,22.7760381 3.65195497,23.4316985 2.87292039,23.4316985 C2.09388582,23.4316985 1.46237118,22.7760381 1.46237118,21.9672173 L1.27590738,8.28603438 C0.333333333,8 0.612782771,4.85887098 0.610490628,4.09471692 L2.67989462,4.09471692 L3.40194866,4.09471692 L4.56062691,4.09471692 Z M28.8713221,0.521982066 C29.2816632,0.703172958 29.5491993,1.13281999 29.5483068,1.60924721 L29.5483068,21.9941509 C29.5483068,22.7880965 28.9489165,23.4316985 28.2095105,23.4316985 C27.4701044,23.4316985 26.8707141,22.7880965 26.8707141,21.9941509 L26.8707141,12.8015134 C26.3377058,12.5991786 25.9805261,12.0591399 25.9781832,11.4521354 L25.9781832,5.1820321 C25.9739995,3.5289722 26.5857178,1.94281815 27.6771158,0.776907169 C27.9901152,0.439562672 28.4619851,0.338814547 28.8713221,0.521982066 Z" id="Combined-Shape" fill="transparent"></path>
                <g id="Coloured" transform="translate(0.333333, 0.000000)" fill="transperant">
                    <path d="M2.34656128,22.7288676 C2.33560972,22.7295929 2.32456066,22.7299613 2.31342562,22.7299613 C2.04054256,22.7299613 1.81929603,22.5087147 1.81929603,22.2358317 L1.81929603,8.89433266 L2.34656128,8.89433266 L2.34656128,22.7288676 Z" id="Combined-Shape" fill-rule="nonzero"></path>
                    <path d="M2.5794954,7.88226204 C2.49317669,7.89790481 2.40425524,7.90607348 2.31342562,7.90607348 C1.49471466,7.90607348 0.831036846,7.24239567 0.831036846,6.4236847 L0.831036846,4.94129592 L2.5794954,4.94129592 L2.5794954,7.88226204 Z" id="Combined-Shape" fill-rule="nonzero"></path>
                    <path d="M28.502294,22.2358317 C28.502294,22.5087147 28.407686,22.7299613 28.2909975,22.7299613 C28.1743089,22.7299613 28.0797009,22.5087147 28.0797009,22.2358317 L28.0797009,12.8473694 L28.502294,12.8473694 L28.502294,22.2358317 Z" id="Path"></path>
                    <path d="M27.6660747,11.8591102 L27.6660747,1.56594847 C27.8876342,1.38755884 28.1279931,1.21715201 28.3863413,1.05595494 C28.4498554,1.01333626 28.5383814,0.988876847 28.6313386,0.988259185 C28.681756,0.988629782 28.7314842,0.995176999 28.7778643,1.00753024 C28.9150352,1.04001926 29.003955,1.12365069 28.9992284,1.2155588 L28.9992284,11.8591102 L27.6660747,11.8591102 Z" id="Combined-Shape"></path>
                </g>
                <g id="Color">
                    <mask id="mask-2" fill="white">
                        <use xlink:href="#path-1"></use>
                    </mask>
                    <use id="Mask" fill="#1ce48c" fill-rule="nonzero" xlink:href="#path-1"></use>
                </g>
            </g>
        </g>
    </g>
</svg>