<?xml version="1.0" encoding="UTF-8"?>
<svg width="24px" height="20px" viewBox="0 0 24 20" version="1.1" xmlns="http://www.w3.org/2000/svg" xmlns:xlink="http://www.w3.org/1999/xlink">
    <!-- Generator: Sketch 53.2 (72643) - https://sketchapp.com -->
    <title>Group</title>
    <desc>Created with Sketch.</desc>
    <defs>
        <path d="M2.475,18.2220873 L21.525,18.2220873 C21.9804,18.2212597 22.349175,17.8513287 22.35,17.3945011 C22.349175,16.9376735 21.9804,16.5669149 21.525,16.5669149 L2.475,16.5669149 C2.0196,16.5669149 1.650825,16.9376735 1.65,17.3945011 C1.650825,17.8513287 2.0196,18.2212597 2.475,18.2220873 Z M20.55975,14.9117424 C19.7727,10.2234666 16.894725,6.63339762 12,6.63588038 C7.105275,6.63339762 4.2273,10.2234666 3.44025,14.9117424 L20.55975,14.9117424 Z M13.65,3.32553555 C13.64835,2.41519072 12.9075,1.67201831 12,1.67036314 C11.0925,1.67201831 10.35165,2.41519072 10.35,3.32553555 C10.35165,4.23588038 11.0925,4.97905279 12,4.98070796 C12.9075,4.97905279 13.64835,4.23588038 13.65,3.32553555 Z M14.63505,5.29767348 C19.2501,6.38429417 21.596775,10.2416735 22.235325,15.0284321 C23.253375,15.3362942 24,16.2722942 24,17.3945011 C23.999175,18.7658114 22.892025,19.8772597 21.525,19.8772597 L2.475,19.8772597 C1.107975,19.8772597 0.000825,18.7658114 -1.31450406e-13,17.3945011 C-1.31450406e-13,16.2722942 0.746625,15.3362942 1.764675,15.0284321 C2.403225,10.2416735 4.7499,6.38429417 9.36495,5.29767348 C8.953275,4.74567348 8.700825,4.06788038 8.7,3.32553555 C8.70165,1.49822521 10.1784,0.0168458954 12,0.015190723 C13.8216,0.0168458954 15.29835,1.49822521 15.3,3.32553555 C15.299175,4.06788038 15.046725,4.74567348 14.63505,5.29767348 Z M12.4896426,7.80761074 C15.2762547,8.28684938 17.5083115,10.1490644 18.5792428,12.5850653 C18.7626936,13.0014414 18.571765,13.4913628 18.1541943,13.6785041 C17.7364759,13.8664604 17.249794,13.6812254 17.0663432,13.2648494 C16.206569,11.3096462 14.4158714,9.81816643 12.1944407,9.43763737 C11.7459592,9.36064324 11.4480995,8.9330293 11.5295752,8.48314195 C11.6110509,8.0332546 12.0411611,7.73061662 12.4896426,7.80761074 Z" id="path-1"></path>
    </defs>
    <g id="Symbols" stroke="none" stroke-width="1" fill="none" fill-rule="evenodd">
        <g id="icons-/-filter-/-dinner" transform="translate(0.000000, -2.000000)">
            <g id="Group" transform="translate(0.000000, 2.000000)">
                <path d="M14.3348187,5.50097847 C14.7224584,4.98120656 15.0943909,4.38582518 15.0951678,3.68682157 C15.0936141,1.96619731 13.703083,0.571307172 11.9878357,0.569748635 C10.2725884,0.571307172 8.88205725,1.96619731 8.88050359,3.68682157 C8.88128042,4.38582518 9.52983324,5.02404587 9.91747292,5.54381778 C5.571869,6.56699697 3.34917991,10.1991662 2.74791115,14.7064537 C1.7892992,14.9963415 0.688446268,15.8776938 0.688446268,16.9343816 C0.689223101,18.225629 1.73173302,19.2721863 3.01894533,19.2721863 L20.956726,19.2721863 C22.2439383,19.2721863 23.2864482,18.225629 23.2872251,16.9343816 C23.2872251,15.8776938 22.2105808,14.9963415 21.2519688,14.7064537 C20.6507001,10.1991662 18.6804227,6.52415767 14.3348187,5.50097847 Z" id="Path" fill="transperant"></path>
                <path d="M21.7652152,18.1670261 L12.0006881,18.1925324 L11.8982858,6.28848914 C11.8982858,6.28848914 18.089024,6.53451619 19.3502808,9.70972993 C20.3063294,12.1165821 22.5615655,16.6642886 22.5615655,16.6642886 C22.4111174,18.0414501 21.8130988,18.1524069 21.7652152,18.1670261 Z M11.9632453,4.98070796 L11.9632453,1.67036314 C13.2173694,1.71762798 13.8444314,2.32969694 13.8444314,3.50657003 C13.8444314,4.68344313 13.2173694,5.17482244 11.9632453,4.98070796 Z" id="Coloured" fill-opacity="0.2" fill="transperant"></path>
                <g id="Color">
                    <mask id="mask-2" fill="1ce48c">
                        <use xlink:href="#path-1"></use>
                    </mask>
                    <use id="Mask" fill="#1ce48c" xlink:href="#path-1"></use>
                    <g id="colors-/-black" mask="url(#mask-2)" fill="#000000" fill-rule="nonzero">
                        <g transform="translate(-3.000000, -5.000000)" id="Rectangle">
                            <rect x="0" y="0" width="30" height="30"></rect>
                        </g>
                    </g>
                </g>
            </g>
        </g>
    </g>
</svg>