<?xml version="1.0" encoding="UTF-8"?>
<svg width="18px" height="24px" viewBox="0 0 18 24" version="1.1" xmlns="http://www.w3.org/2000/svg" xmlns:xlink="http://www.w3.org/1999/xlink">
    <!-- Generator: Sketch 53.2 (72643) - https://sketchapp.com -->
    <title>Color 2</title>
    <desc>Created with Sketch.</desc>
    <defs>
        <path d="M8.94444444,15.012 C7.03830303,15.01125 5.31563636,14.25 4.06125253,13.026 C2.97959596,11.9685 2.2579798,10.5 2.08064646,9 L15.8082424,9 C15.6309091,10.5 14.9092929,11.9685 13.8276364,13.026 C12.5732525,14.25 10.8505859,15.01125 8.94444444,15.012 L8.94444444,15.012 Z M3.43252525,1.5 L14.4563636,1.5 L15.6846465,7.5 L2.20424242,7.5 L3.43252525,1.5 L3.43252525,1.5 Z M17.3888889,8.262 L17.374303,8.115 L15.8389495,0.609 C15.7667879,0.258 15.4520404,0 15.0858586,0 L2.8030303,0 C2.43684848,0 2.12210101,0.258 2.04993939,0.609 L0.514585859,8.112 L0.5,8.2605 C0.501535354,12.558 3.57070707,16.092 8.17676768,16.47375 L8.17676768,22.5 L4.33838384,22.5 C3.91462626,22.5 3.57070707,22.8375 3.57070707,23.25 C3.57070707,23.6625 3.91462626,24 4.33838384,24 L13.5505051,24 C13.9742626,24 14.3181818,23.6625 14.3181818,23.25 C14.3181818,22.8375 13.9742626,22.5 13.5505051,22.5 L9.71212121,22.5 L9.71212121,16.47375 C13.5505051,16.092 17.3873535,12.5595 17.3888889,8.262 L17.3888889,8.262 Z" id="path-1"></path>
    </defs>
    <g id="Symbols" stroke="none" stroke-width="1" fill="none" fill-rule="evenodd">
        <g id="icons-/-filter-/-drink" transform="translate(-3.000000, 0.000000)">
            <g id="Color-2" transform="translate(3.000000, 0.000000)">
                <g id="Color">
                    <path d="M16.7989919,8.33762658 L15.3785398,1.14437658 C15.3117786,0.808001585 15.0205859,0.560751585 14.6818081,0.560751585 L3.31819188,0.560751585 C2.97941407,0.560751585 2.6882214,0.808001585 2.62146016,1.14437658 L1.20100812,8.33475158 L1.18751383,8.47706408 C1.18893428,12.5955016 4.02841789,15.9822516 8.28977398,16.3480953 L9.71022602,16.3480953 C13.2613561,15.9822516 16.8110657,12.5969391 16.8124862,8.47850158 L16.7989919,8.33762658 Z" id="Path" fill="transperant"></path>
                    <path d="M11.3031483,14.9267839 C11.3031483,14.9267839 11.1813803,15.1040077 10.6760519,15.1926197 C10.2469975,15.2678566 9.38888889,15.4183304 9.38888889,15.4183304 L9.38888889,1.49051657 L14.4147439,1.49840601 L15.6631965,7.51852992 C16.7100225,12.096807 12.400122,15.0941756 11.3031483,14.9267839 Z" id="Coloured" fill-opacity="0.2" fill="transperant"></path>
                    <mask id="mask-2" fill="">
                        <use xlink:href="#path-1"></use>
                    </mask>
                    <use id="Mask" fill="#1ce48c" xlink:href="#path-1"></use>
                    <g id="colors-/-black" mask="url(#mask-2)" fill="#000000" fill-rule="nonzero">
                        <g transform="translate(-6.000000, -3.000000)" id="Rectangle">
                            <rect x="0" y="0" width="30" height="30"></rect>
                        </g>
                    </g>
                </g>
            </g>
        </g>
    </g>
</svg>