<?xml version="1.0" encoding="UTF-8"?>
<svg width="24px" height="24px" viewBox="0 0 24 24" version="1.1" xmlns="http://www.w3.org/2000/svg" xmlns:xlink="http://www.w3.org/1999/xlink">
    <!-- Generator: Sketch 53.2 (72643) - https://sketchapp.com -->
    <title>Group 4</title>
    <desc>Created with Sketch.</desc>
    <g id="Symbols" stroke="none" stroke-width="1" fill="none" fill-rule="evenodd">
        <g id="icons-/-filter-/-brunch">
            <g id="Group-4" transform="translate(1.045455, 0.000000)">
                <g id="Group-2" transform="translate(-0.000000, 12.872727)">
                    <ellipse id="Oval-Copy-2" stroke="#000000" fill="#FFFFFF" cx="6.87144886" cy="8.52286932" rx="6.87144886" ry="1.95407197"></ellipse>
                    <ellipse id="Oval-Copy-3" stroke="#000000" fill="#FFFFFF" cx="6.87144886" cy="6.90307765" rx="6.87144886" ry="1.95407197"></ellipse>
                    <ellipse id="Oval-Copy-4" stroke="#000000" fill="#FFFFFF" cx="6.87144886" cy="5.32447917" rx="6.87144886" ry="1.95407197"></ellipse>
                    <ellipse id="Oval-Copy-5" stroke="#000000" fill="#FFFFFF" cx="6.87144886" cy="3.69261364" rx="6.87144886" ry="1.95407197"></ellipse>
                    <g id="Group">
                        <ellipse id="Oval" stroke="#000000" fill="#FFFFFF" cx="6.87144886" cy="1.95407197" rx="6.87144886" ry="1.95407197"></ellipse>
                        <g id="Rectangle_Isometric" transform="translate(3.706913, 0.635417)">
                            <polygon id="Rectangle_Right_Isometric" fill="#9C9C9C" points="2.33766234 2.33766234 5.12919372 0.941896645 5.12919372 0.941896645"></polygon>
                            <polygon id="Rectangle_Left_Isometric" fill="#616161" points="2.33766234 2.63641437 0.753348214 1.54550528 0.753348214 1.54550528"></polygon>
                            <polygon id="Rectangle_Top_Isometric" fill="#040614" points="3.5448796 0.149739583 0.753348214 1.54550528 2.33766234 2.33766234 5.12919372 0.941896645"></polygon>
                        </g>
                    </g>
                </g>
                <g id="Group-3" transform="translate(10.909091, 0.000000)">
                    <path d="M7.11458333,14.9315814 C8.92559093,14.9315814 10.3937027,9.97019659 10.3937027,7.00580019 C8.0927482,7.00580019 5.30357574,7.00580019 3.83546402,7.00580019 C3.83546402,9.97019659 5.30357574,14.9315814 7.11458333,14.9315814 Z" id="Oval-Copy" fill="#D2FAE8"></path>
                    <path d="M4.15379221,7.02035985 C4.74257845,10.9596249 6.0538149,14.6780303 7.11458333,14.6780303 C8.17535177,14.6780303 9.48658822,10.9596249 10.0753745,7.02035985 L4.15379221,7.02035985 Z M4.04246012,6.20217803 L10.1867066,6.20217803 C10.2909527,5.35137031 10.3586207,4.50152108 10.380011,3.6875 L3.84915566,3.6875 C3.87054594,4.50152108 3.93821401,5.35137031 4.04246012,6.20217803 Z M7.66003788,15.6466238 L7.66003788,22.290483 L9.84185606,22.290483 L9.84185606,23.381392 L4.38731061,23.381392 L4.38731061,22.290483 L6.56912879,22.290483 L6.56912879,15.6466238 C4.74568283,14.8288125 3.2504217,10.0468756 2.85404157,5.45165141 C2.81202624,5.45357377 2.76976296,5.45454545 2.72727273,5.45454545 C1.22104159,5.45454545 1.00230935e-12,4.23350386 1.00230935e-12,2.72727273 C1.00230935e-12,1.22104159 1.22104159,0 2.72727273,0 C4.18969432,0 5.38327489,1.15104525 5.45146959,2.59659091 L11.4782197,2.59659091 L11.4782197,3.14204545 C11.4782197,8.30429144 9.79383098,14.6896225 7.66003788,15.6466238 Z" id="Combined-Shape" fill="#040614"></path>
                </g>
            </g>
        </g>
    </g>
</svg>