<?xml version="1.0" encoding="UTF-8"?>
<svg width="28px" height="27px" viewBox="0 0 28 27" version="1.1" xmlns="http://www.w3.org/2000/svg" xmlns:xlink="http://www.w3.org/1999/xlink">
    <!-- Generator: Sketch 53.2 (72643) - https://sketchapp.com -->
    <title>Group</title>
    <desc>Created with Sketch.</desc>
    <g id="Symbols" stroke="none" stroke-width="1" fill="none" fill-rule="evenodd">
        <g id="icons-/-filter-/-happyHour">
            <g id="Group" transform="translate(0.000000, 0.000000)">
                <g id="Smiley" fill-rule="nonzero">
                    <path d="M12,22.3615385 C17.7225197,22.3615385 22.3615385,17.7225197 22.3615385,12 C22.3615385,6.27748032 17.7225197,1.63846154 12,1.63846154 C6.27748032,1.63846154 1.63846154,6.27748032 1.63846154,12 C1.63846154,17.7225197 6.27748032,22.3615385 12,22.3615385 Z" id="Path" fill="#FFFFFF"></path>
                    <g id="happy" fill="#000000">
                        <path d="M11.9975769,2.87014904 L12.0650055,3.92509409 L11.9975769,2.87014904 Z" id="Shape"></path>
                        <path d="M10.3203584,9.27531498 C9.84812145,8.27666579 8.82960196,7.63133367 7.7256824,7.63133367 C6.62176285,7.63133367 5.60330375,8.2766054 5.1310064,9.27531498 C4.98841125,9.57687261 5.11723609,9.93689364 5.41879372,10.0794888 C5.72023056,10.2220235 6.08031199,10.0932591 6.22296753,9.79170146 C6.49656177,9.21310702 7.08645029,8.83925528 7.7256824,8.83925528 C8.36491451,8.83925528 8.95480303,9.21310702 9.22839727,9.79170146 C9.33155378,10.0099125 9.5484965,10.1376502 9.77480061,10.1376502 C9.8612878,10.1376502 9.94916409,10.1189878 10.0325711,10.0794888 C10.3341287,9.93689364 10.4629535,9.57687261 10.3203584,9.27531498 Z" id="Path"></path>
                        <path d="M18.8690369,9.27531498 C18.3967999,8.27666579 17.3782804,7.63133367 16.2743609,7.63133367 C15.1704413,7.63133367 14.1519822,8.2766054 13.6796849,9.27531498 C13.5370897,9.57687261 13.6659146,9.93689364 13.9674722,10.0794888 C14.2688486,10.2220235 14.6290509,10.0932591 14.771646,9.79170146 C15.0452402,9.21310702 15.6351288,8.83925528 16.2743609,8.83925528 C16.913593,8.83925528 17.5034815,9.21310702 17.7770757,9.79170146 C17.8802322,10.0099125 18.097175,10.1376502 18.3234791,10.1376502 C18.4099663,10.1376502 18.497903,10.1189878 18.5812495,10.0794888 C18.8828072,9.93689364 19.011632,9.57687261 18.8690369,9.27531498 Z" id="Path"></path>
                        <path d="M16.3627385,13.8869519 L7.71350186,13.8869519 C7.3817676,13.8869519 7.11286043,14.1558591 7.11286043,14.4875934 C7.11286043,17.2033936 9.32231995,19.4128531 12.0381202,19.4128531 C14.7539204,19.4128531 16.96338,17.2033336 16.96338,14.4875934 C16.96338,14.1558591 16.6944728,13.8869519 16.3627385,13.8869519 Z M12.0381202,18.2115703 C10.1891657,18.2115703 8.65056256,16.8571238 8.362555,15.0882348 L15.7136854,15.0882348 C15.4256778,16.8571238 13.8870747,18.2115703 12.0381202,18.2115703 Z" id="Shape"></path>
                        <path d="M12,23.7923077 C5.4872883,23.7923077 0.207692308,18.5127117 0.207692308,12 C0.207692308,5.4872883 5.4872883,0.207692308 12,0.207692308 C18.5127117,0.207692308 23.7923077,5.4872883 23.7923077,12 C23.7923077,18.5127117 18.5127117,23.7923077 12,23.7923077 Z M12,22.3615385 C17.7225197,22.3615385 22.3615385,17.7225197 22.3615385,12 C22.3615385,6.27748032 17.7225197,1.63846154 12,1.63846154 C6.27748032,1.63846154 1.63846154,6.27748032 1.63846154,12 C1.63846154,17.7225197 6.27748032,22.3615385 12,22.3615385 Z" id="Oval"></path>
                    </g>
                </g>
                <path d="M12.0381202,18.2115703 C10.1891657,18.2115703 8.65056256,16.8571238 8.362555,15.0882348 L15.7136854,15.0882348 C15.4256778,16.8571238 13.8870747,18.2115703 12.0381202,18.2115703 Z" id="Path" fill="#D2FAE8"></path>
                <path d="M26.8113075,18.4678491 L27.3427171,17.9363431 C27.6314197,17.6477369 27.6314197,17.1779442 27.3427171,16.8891451 C27.0540144,16.6004425 26.5842217,16.6004425 26.2955191,16.8891451 L25.7281422,17.456522 C25.1362729,17.0442963 24.4615727,16.7589686 23.7546658,16.6220421 L23.7546658,15.885725 L24.2483724,15.885725 C24.3847203,15.885725 24.4952257,15.7752196 24.4952257,15.6388717 L24.4952257,14.9970532 C24.4952257,14.5886845 24.1630344,14.2564933 23.7546658,14.2564933 L21.7798394,14.2564933 C21.3714708,14.2564933 21.0392795,14.5886845 21.0392795,14.9970532 L21.0392795,15.6388717 C21.0392795,15.7752196 21.1497849,15.885725 21.2861328,15.885725 L21.7798394,15.885725 L21.7798394,16.6220421 C21.073029,16.7588722 20.3982324,17.0442963 19.806363,17.456522 L19.2389861,16.8891451 C18.9503799,16.6004425 18.4805872,16.6004425 18.1917882,16.8891451 C17.9030855,17.1778478 17.9030855,17.6476404 18.1917882,17.9363431 L18.7231977,18.4678491 C17.9865914,19.3853527 17.5833333,20.5282063 17.5833333,21.7114629 C17.5833333,24.5698505 19.908865,26.8953821 22.7672526,26.8953821 C25.6256402,26.8953821 27.9511719,24.5698505 27.9511719,21.7114629 C27.9511719,20.5282063 27.5479139,19.3853527 26.8113075,18.4678491 Z" id="Path" fill="#FFFFFF"></path>
                <circle id="Oval" fill="#D2FAE8" cx="22.8187745" cy="21.600228" r="3.43122551"></circle>
                <g id="stopwatch" transform="translate(17.583333, 14.256493)" fill="#000000" fill-rule="nonzero">
                    <path d="M9.22797416,4.21135583 L9.75938372,3.67984982 C10.0480864,3.39124361 10.0480864,2.92145093 9.75938372,2.63265187 C9.47068108,2.34394921 9.0008884,2.34394921 8.71218577,2.63265187 L8.14480886,3.20002873 C7.55293952,2.78780302 6.87823932,2.50247531 6.17133247,2.36554888 L6.17133247,1.62923177 L6.66503906,1.62923177 C6.80138695,1.62923177 6.91189236,1.51872636 6.91189236,1.38237847 L6.91189236,0.740559896 C6.91189236,0.332191249 6.57970111,0 6.17133247,0 L4.19650608,0 C3.78813743,0 3.45594618,0.332191249 3.45594618,0.740559896 L3.45594618,1.38237847 C3.45594618,1.51872636 3.56645159,1.62923177 3.70279948,1.62923177 L4.19650608,1.62923177 L4.19650608,2.36554888 C3.48969567,2.50237889 2.81489902,2.78780302 2.22302968,3.20002873 L1.65565278,2.63265187 C1.36704656,2.34394921 0.897253878,2.34394921 0.608454823,2.63265187 C0.319752163,2.92135451 0.319752163,3.39114719 0.608454823,3.67984982 L1.13986439,4.21135583 C0.403258018,5.12885941 0,6.27171304 0,7.45496962 C0,10.3133573 2.32553164,12.6388889 5.18391927,12.6388889 C8.04230691,12.6388889 10.3678385,10.3133573 10.3678385,7.45496962 C10.3678385,6.27171304 9.96458052,5.12885941 9.22797416,4.21135583 Z M9.06125173,2.98171784 C9.15758238,2.88548364 9.31408352,2.88558006 9.41031775,2.98171784 C9.50645553,3.07795207 9.50645553,3.23454963 9.41031775,3.33078386 L8.90021854,3.84078662 C8.78527747,3.72275989 8.66474362,3.61022949 8.53938846,3.50367759 L9.06125173,2.98171784 Z M3.94965278,0.740559896 C3.94965278,0.604404873 4.06035105,0.493706597 4.19650608,0.493706597 L6.17133247,0.493706597 C6.30748749,0.493706597 6.41818576,0.604404873 6.41818576,0.740559896 L6.41818576,1.13552517 L3.94965278,1.13552517 L3.94965278,0.740559896 Z M5.67762587,1.62923177 L5.67762587,2.29438569 C5.35044883,2.26372189 5.01748614,2.26372189 4.69021267,2.29438569 L4.69021267,1.62923177 L5.67762587,1.62923177 Z M0.95752079,2.98171784 C1.05375502,2.88558006 1.21035258,2.88548364 1.30658681,2.98171784 L1.82845008,3.50367759 C1.70309492,3.61022949 1.58256107,3.72275989 1.46762,3.84078662 L0.95752079,3.33078386 C0.861383008,3.23454963 0.861383008,3.07795207 0.95752079,2.98171784 Z M5.18391927,12.1451823 C2.59774526,12.1451823 0.493706597,10.0411436 0.493706597,7.45496962 C0.493706597,6.31414095 0.907860868,5.21496877 1.65979915,4.3597571 C1.86692449,4.12418576 2.0980602,3.90896054 2.34674559,3.71977064 C2.96995375,3.2455423 3.70762082,2.93340788 4.48000166,2.81702043 C4.71113734,2.7824031 4.94796222,2.76475694 5.18391927,2.76475694 C5.41987632,2.76475694 5.6567012,2.7824031 5.88774046,2.81702043 C6.66021772,2.93340788 7.39788479,3.2455423 8.02118937,3.71977064 C8.26977835,3.90896054 8.50091405,4.12418576 8.7080394,4.3597571 C9.45997767,5.21496877 9.87413194,6.31414095 9.87413194,7.45496962 C9.87413194,10.0411436 7.77009328,12.1451823 5.18391927,12.1451823 Z" id="Shape"></path>
                    <path d="M5.18391927,8.19552951 C5.59228792,8.19552951 5.92447917,7.86333826 5.92447917,7.45496962 C5.92447917,7.13319249 5.71812524,6.85876104 5.43077257,6.75683763 L5.43077257,4.98643663 C5.43077257,4.85008874 5.32026716,4.73958333 5.18391927,4.73958333 C5.04757138,4.73958333 4.93706597,4.85008874 4.93706597,4.98643663 L4.93706597,6.75683763 C4.6497133,6.85876104 4.44335938,7.13319249 4.44335938,7.45496962 C4.44335938,7.86333826 4.77555062,8.19552951 5.18391927,8.19552951 Z M5.18391927,7.20811632 C5.32007429,7.20811632 5.43077257,7.3188146 5.43077257,7.45496962 C5.43077257,7.59112464 5.32007429,7.70182292 5.18391927,7.70182292 C5.04776425,7.70182292 4.93706597,7.59112464 4.93706597,7.45496962 C4.93706597,7.3188146 5.04776425,7.20811632 5.18391927,7.20811632 Z" id="Shape"></path>
                    <path d="M7.8135819,4.85066732 C7.80972481,4.84613524 7.80586773,4.84160316 7.80152849,4.83736039 C7.7969,4.83263545 7.79198223,4.82839266 7.78706445,4.82414987 C7.35198551,4.39369943 6.81450103,4.07520083 6.23121367,3.90298208 C6.10036214,3.86441125 5.96314642,3.93904579 5.92457559,4.06980092 C5.88600476,4.200556 5.96063932,4.33786815 6.09139443,4.37643898 C6.52358054,4.50410844 6.92674212,4.72473358 7.27040822,5.01931826 L7.10387866,5.18584781 C7.00754801,5.28227488 7.00754801,5.43858316 7.10387866,5.53501023 C7.1520922,5.58322376 7.21525191,5.60733054 7.27850807,5.60733054 C7.3416678,5.60733054 7.40482754,5.58322376 7.45304108,5.53501023 L7.61995634,5.36809499 C8.06660653,5.88745117 8.3318774,6.52676266 8.38356231,7.20811632 L8.14615885,7.20811632 C8.00981097,7.20811632 7.89930556,7.31871817 7.89930556,7.45496962 C7.89930556,7.59131751 8.00981097,7.70182292 8.14615885,7.70182292 L8.38356231,7.70182292 C8.3318774,8.38327302 8.06660653,9.02248806 7.61995634,9.54184425 L7.45304108,9.37492901 C7.35661401,9.27859836 7.20030573,9.27859836 7.10387866,9.37492901 C7.00745159,9.47135608 7.00745159,9.62766435 7.10387866,9.72409142 L7.2707939,9.89100669 C6.75143772,10.3376569 6.11212623,10.6029278 5.43077257,10.6547091 L5.43077257,10.4172092 C5.43077257,10.2808613 5.32026716,10.1703559 5.18391927,10.1703559 C5.04757138,10.1703559 4.93706597,10.2808613 4.93706597,10.4172092 L4.93706597,10.6546127 C4.25571231,10.6029278 3.61640082,10.3376569 3.09704464,9.89100669 L3.26395988,9.72409142 C3.36038695,9.62766435 3.36038695,9.47135608 3.26395988,9.37492901 C3.16753281,9.27859836 3.01122453,9.27859836 2.91479747,9.37492901 L2.7478822,9.54184425 C2.30123201,9.02248806 2.03596114,8.38317658 1.98427623,7.70182292 L2.22167969,7.70182292 C2.35802758,7.70182292 2.46853299,7.59131751 2.46853299,7.45496962 C2.46853299,7.31862173 2.35802758,7.20811632 2.22167969,7.20811632 L1.98427623,7.20811632 C2.03596114,6.52676266 2.30123201,5.88745117 2.7478822,5.36809499 L2.91479747,5.53501023 C2.963011,5.58322376 3.02617074,5.60733054 3.08933047,5.60733054 C3.15258663,5.60733054 3.21574634,5.58322376 3.26395988,5.53501023 C3.36029053,5.43858316 3.36029053,5.28227488 3.26395988,5.18584781 L3.09743032,5.01931826 C3.44109642,4.72463713 3.844258,4.50410844 4.27644411,4.37643898 C4.40719922,4.33786815 4.48183378,4.200556 4.44326295,4.06980092 C4.40469213,3.93904579 4.26757282,3.86450767 4.13662487,3.90298208 C3.55343395,4.07510439 3.01614232,4.39350659 2.5811598,4.82376416 C2.57604918,4.8281034 2.57103497,4.83253903 2.56631005,4.83726395 C2.56206723,4.84150674 2.55830659,4.8459424 2.55444951,4.85037803 C1.86219957,5.54908859 1.48111979,6.47324563 1.48111979,7.45496962 C1.48111979,8.43659719 1.86219957,9.3606578 2.55425664,10.0592719 C2.55811373,10.063804 2.56197081,10.0683361 2.56631005,10.0725788 C2.57055281,10.0769181 2.57498847,10.0806787 2.57942413,10.0845358 C3.27813466,10.7766893 4.20219528,11.1577691 5.18391927,11.1577691 C6.16554684,11.1577691 7.08960746,10.7767857 7.78822157,10.0847287 C7.79275365,10.0807752 7.79728573,10.0769181 7.80152849,10.0725788 C7.80577131,10.0684325 7.80953195,10.0639004 7.81338903,10.0595612 C8.50563897,9.36085065 8.88671875,8.43669361 8.88671875,7.45496962 C8.88671875,6.47334205 8.50563897,5.54928143 7.8135819,4.85066732 Z" id="Path"></path>
                    <path d="M5.18391927,4.24587674 C5.32017071,4.24587674 5.43077257,4.13527488 5.43077257,3.99902344 C5.43077257,3.86277199 5.32017071,3.75217014 5.18391927,3.75217014 C5.04766783,3.75217014 4.93706597,3.86277199 4.93706597,3.99902344 C4.93706597,4.13527488 5.04766783,4.24587674 5.18391927,4.24587674 Z" id="Path"></path>
                </g>
            </g>
        </g>
    </g>
</svg>