<?xml version="1.0" encoding="UTF-8"?>
<svg width="24px" height="22px" viewBox="0 0 24 22" version="1.1" xmlns="http://www.w3.org/2000/svg" xmlns:xlink="http://www.w3.org/1999/xlink">
    <!-- Generator: Sketch 53.2 (72643) - https://sketchapp.com -->
    <title>Group</title>
    <desc>Created with Sketch.</desc>
    <defs>
        <path d="M17.1311563,17.3534139 C17.097375,17.3484448 17.0664687,17.3335374 17.03125,17.3335374 L6.96875,17.3335374 C6.93353125,17.3335374 6.902625,17.3484448 6.86884375,17.3534139 C3.9155,15.6170559 1.9375,12.4339695 1.9375,8.80862996 L1.9375,8.81501885 C9.125,8.81501885 14.9691562,8.80792008 22.0625,8.80792008 C22.0632187,12.4339695 20.0845,15.6170559 17.1311563,17.3534139 L17.1311563,17.3534139 Z M16.3125,19.463167 C16.3125,19.84863 15.9840313,20.1723337 15.59375,20.1730435 L8.40625,20.1730435 C8.01596875,20.1723337 7.6875,19.84863 7.6875,19.463167 L7.6875,18.7532905 L16.3125,18.7532905 L16.3125,19.463167 L16.3125,19.463167 Z M13.3577188,7.39526576 L11.8670313,7.39526576 C11.56875,6.57109909 10.781,5.9776423 9.84375,5.97551267 C8.9065,5.9776423 8.11875,6.57109909 7.82046875,7.39526576 L6.32259375,7.39526576 C6.46634375,6.70384601 6.81565625,6.08412378 7.30584375,5.59927811 C7.960625,4.95329045 8.8561875,4.55575959 9.84375,4.55575959 C10.5603438,4.55575959 11.2431563,4.76801267 11.82175,5.13572872 C12.5987187,5.64896946 13.1629375,6.46248798 13.3577188,7.39526576 L13.3577188,7.39526576 Z M5.27034375,3.58819786 C6.44334375,2.43038922 8.05621875,1.71625341 9.84375,1.71625341 C11.4630938,1.71625341 12.9465938,2.30332132 14.0850938,3.28650033 L14.0908437,3.29146946 C14.714,3.81819786 15.2243125,4.47696329 15.6045312,5.21310527 C15.6030938,5.23156206 15.59375,5.24717934 15.59375,5.26563613 C15.59375,5.4935065 15.70875,5.68659292 15.8776562,5.81650033 C16.0702813,6.31838304 16.2082813,6.84440156 16.2708125,7.39526576 L14.8189375,7.39526576 C14.6083438,5.96344477 13.7810625,4.71903119 12.6145313,3.95094477 L12.6051875,3.94526576 C11.8045,3.43415465 10.8507188,3.1360065 9.84375,3.1360065 C7.316625,3.13884601 5.223625,4.99304354 4.87071875,7.39526576 L3.41740625,7.39526576 C3.58271875,5.91517317 4.257625,4.58912378 5.27034375,3.58819786 L5.27034375,3.58819786 Z M17.75,7.39526576 L17.712625,7.39526576 C17.6946563,7.20856823 17.6659063,7.02612996 17.6357188,6.84440156 C17.7090312,7.01406206 17.75,7.20004971 17.75,7.39526576 L17.75,7.39526576 Z M16.3125,3.1360065 C17.50275,3.1360065 18.5765625,3.61233366 19.36,4.38538922 C20.1427188,5.15915465 20.625,6.2197102 20.625,7.39526576 L19.1875,7.39526576 C19.1860625,6.02946329 18.2092813,4.89082132 16.9083438,4.6189386 C16.6445625,4.09930897 16.3254375,3.61375341 15.956,3.16866082 C16.0745937,3.15872255 16.1895938,3.1360065 16.3125,3.1360065 L16.3125,3.1360065 Z M22.0625,7.39526576 C22.0610625,4.2618707 19.4850625,1.71767317 16.3125,1.71625341 C15.7540313,1.71625341 15.2128125,1.80072872 14.699625,1.95548181 C13.3562813,0.914802797 11.6665,0.296500328 9.84375,0.296500328 C5.721,0.297210204 2.3385625,3.41711761 1.97415625,7.39526576 L1.8929375,7.39526576 C1.1281875,7.39526576 0.5,8.00362996 0.5,8.7589386 L0.5,8.81501885 C0.5,13.0068398 2.65625,16.6726423 6.25,18.6390003 L6.25,19.463167 C6.25,20.6394324 7.21528125,21.5899571 8.40625,21.5927966 L15.59375,21.5927966 C16.7847188,21.5899571 17.75,20.6394324 17.75,19.463167 L17.75,18.6390003 C21.34375,16.6726423 23.4992813,13.0068398 23.5,8.81501885 C23.4992813,8.03060527 22.8567188,7.39597564 22.0625,7.39526576 L22.0625,7.39526576 Z" id="path-1"></path>
    </defs>
    <g id="Symbols" stroke="none" stroke-width="1" fill="none" fill-rule="evenodd">
        <g id="icons-/-filter-/-noodles" transform="translate(0.000000, -1.000000)">
            <g id="Group" transform="translate(0.000000, 1.000000)">
                <path d="M21.6944372,7.52509392 C21.6930522,4.50631117 19.2112763,2.05517447 16.1547588,2.05380664 C15.6167175,2.05380664 15.0952953,2.13519204 14.600879,2.28428462 C13.3066716,1.28167123 11.6786987,0.685984823 9.92262061,0.685984823 C5.95067122,0.686668734 2.69195541,3.69245718 2.3408783,7.52509392 L2.26263034,7.52509392 C1.52585312,7.52509392 0.920643255,8.11120557 0.920643255,8.83888678 L0.920643255,8.89291575 C0.920643255,12.9314097 2.99802264,16.4631256 6.46032163,18.3575588 L6.46032163,19.1515794 C6.46032163,20.2848198 7.39029513,21.2005765 8.53770102,21.2033121 L15.462299,21.2033121 C16.6097049,21.2005765 17.5396784,20.2848198 17.5396784,19.1515794 L17.5396784,18.3575588 C21.0019774,16.4631256 23.0786643,12.9314097 23.0793567,8.89291575 C23.0786643,8.13719419 22.4596052,7.52577784 21.6944372,7.52509392 L21.6944372,7.52509392 Z" id="Path" fill="transperant"></path>
                <path d="M16.7518142,20.1723914 L14.1296296,20.1365444 L14.1296296,8.81501885 L21.9418443,8.81501885 C21.9418443,8.81501885 22.5402544,10.7691427 20.8064441,13.805193 C20.01324,15.1941614 17.1951788,17.3497533 17.1951788,17.3497533 C17.0403194,18.7672945 16.8011018,20.1573436 16.7518142,20.1723914 Z" id="Fill-126" fill-opacity="0.2" fill="transperant"></path>
                <path d="M12.1688245,2.226018 L12.1688245,3.70390773 C13.915792,4.92753599 14.7859784,6.13204872 14.7793837,7.31744592 L20.6092236,7.31744592 C20.2586089,4.82936645 18.7594898,3.3409031 16.1118662,2.85205588 C13.4642427,2.36320866 12.1498954,2.15452937 12.1688245,2.226018 Z" id="Path-2" fill-opacity="0.2" fill="#1CE48C"></path>
                <g id="Color">
                    <mask id="mask-2" fill="white">
                        <use xlink:href="#path-1"></use>
                    </mask>
                    <use id="Mask" fill="#040614" xlink:href="#path-1"></use>
                    <g id="colors-/-black" mask="url(#mask-2)" fill="#1ce48c" fill-rule="nonzero">
                        <g transform="translate(-3.000000, -4.000000)" id="Rectangle">
                            <rect x="0" y="0" width="30" height="30"></rect>
                        </g>
                    </g>
                </g>
            </g>
        </g>
    </g>
</svg>