<?xml version="1.0" encoding="UTF-8"?>
<svg width="80px" height="80px" viewBox="0 0 80 80" version="1.1" xmlns="http://www.w3.org/2000/svg" xmlns:xlink="http://www.w3.org/1999/xlink">
    <!-- Generator: Sketch 52.3 (67297) - http://www.bohemiancoding.com/sketch -->
    <title>colors / primary / mint</title>
    <desc>Created with Sketch.</desc>
    <defs>
        <path d="M21.7437404,25.3362594 C21.7705378,25.363835 26.2417866,29.6557095 33.6672212,36.7801455 C34.2649981,37.3536909 34.2846417,38.3032352 33.7110964,38.9010121 C33.137551,39.498789 32.1880067,39.5184326 31.5902298,38.9448873 C23.164058,30.8602801 19.6614964,27.4982317 19.5922797,27.4270049 C16.7703411,24.5231173 16.714611,20.54609 19.2034374,15.8310384 L20.1675772,14.0044873 L21.6062343,15.4864186 L38.7222774,33.1195106 C39.5942543,33.9399315 39.9806492,35.0885561 39.9251809,36.4491325 C39.872062,37.7520802 39.4745869,38.8347416 38.685799,39.6312747 C34.8898642,43.4272094 28.8897732,49.6829597 20.7135191,58.368732 C19.8303602,59.3496851 19.7875829,59.7963365 20.2683066,60.2770602 C20.7833389,60.7920924 21.164184,60.7596397 22.1197135,59.8284305 L36.6347883,46.0814463 C37.2362728,45.5117904 38.1856697,45.5375926 38.7553257,46.1390771 C39.3249816,46.7405616 39.2991794,47.6899585 38.6976949,48.2596144 L24.1981931,61.9916356 C22.1603843,63.9780407 19.9177469,64.1691411 18.1469862,62.3983805 C16.4097753,60.6611696 16.6236764,58.4277556 18.5065047,56.3369886 C26.7244848,47.6063494 32.7419875,41.3324455 36.5592925,37.515166 C36.766213,37.306207 36.9029293,36.9338127 36.9276709,36.3269292 C36.950063,35.7776744 36.8484443,35.4755953 36.6181475,35.256805 L20.9847366,19.1531482 C19.9905302,21.8333728 20.2836447,23.8337626 21.7437404,25.3362594 Z M64.151039,22.8849163 C64.7368255,22.2991298 65.6865729,22.2991298 66.2723594,22.8849163 C66.8581458,23.4707027 66.8581458,24.4204502 66.2723594,25.0062366 L53.3794024,37.8991426 C52.6114772,38.6564916 51.5260293,39.000558 50.1846576,39.0149834 C49.7457089,39.019704 49.3348062,38.9886185 48.9511118,38.9192201 C48.4672248,38.8317057 47.971175,38.9869117 47.623471,39.3346157 C44.7988818,42.1592048 44.7988818,42.1592048 43.3240915,43.6339697 C43.117171,43.8429287 42.9804547,44.215323 42.9557131,44.8222065 C42.9333209,45.3714612 43.0349397,45.6735404 43.2222309,45.8497829 L57.9715685,59.8652999 C58.9167561,60.7967452 59.3010622,60.8395385 59.8104845,60.3222314 C60.3520641,59.7722692 60.3142841,59.3220018 59.46503,58.3858239 C58.056,56.9358757 53.5154859,52.2993988 45.8477869,44.4807986 C45.267736,43.8893323 45.2769901,42.9396299 45.8684565,42.359579 C46.4599228,41.7795281 47.4096252,41.7887822 47.9896761,42.3802485 C55.661898,50.2034606 60.2027365,54.8402688 61.6510651,56.3318762 C63.5254547,58.395326 63.7133402,60.6345679 61.9480326,62.4271988 C60.1505678,64.2524848 57.894504,64.0012671 55.8854514,62.021076 L41.1611066,48.0296251 C40.2891297,47.2092042 39.9027347,46.0605796 39.9582031,44.7000032 C40.011322,43.3970555 40.4087971,42.3143941 41.197585,41.517861 L45.5021506,37.2132954 C46.5452598,36.1701861 48.0333897,35.7045744 49.4850383,35.9671154 C49.6727641,36.0010691 49.8955017,36.0179196 50.1523967,36.0151569 C50.7847172,36.0083568 51.1376658,35.8964787 51.2654619,35.7704933 L64.151039,22.8849163 Z M57.6794291,16.3173907 L44.793852,29.2029678 C44.6678666,29.3307639 44.5559885,29.6837126 44.5491884,30.316033 C44.5464257,30.572928 44.5632762,30.7956656 44.5972299,30.9833914 C44.8597709,32.43504 44.3941592,33.9231699 43.35105,34.9662791 L43.0290835,35.2882456 C42.443297,35.8740321 41.4935496,35.8740321 40.9077631,35.2882456 C40.3219767,34.7024592 40.3219767,33.7527117 40.9077631,33.1669253 L41.2297296,32.8449588 C41.5774336,32.4972547 41.7326396,32.0012049 41.6451252,31.517318 C41.5757268,31.1336236 41.5446413,30.7227208 41.5493619,30.2837721 C41.5637873,28.9424004 41.9078537,27.8569525 42.6652028,27.0890273 L55.5581087,14.1960704 C56.1438952,13.6102839 57.0936426,13.6102839 57.6794291,14.1960704 C58.2652155,14.7818568 58.2652155,15.7316043 57.6794291,16.3173907 Z M59.1588252,17.1281771 C59.5493495,16.7376528 60.1825144,16.7376528 60.5730387,17.1281771 C60.963563,17.5187014 60.963563,18.1518664 60.5730387,18.5423906 L48.4072085,30.7082209 C48.0166842,31.0987452 47.3835192,31.0987452 46.9929949,30.7082209 C46.6024706,30.3176966 46.6024706,29.6845316 46.9929949,29.2940073 L59.1588252,17.1281771 Z M61.8744372,19.8162614 C62.2649615,19.4257371 62.8981265,19.4257371 63.2886508,19.8162614 C63.6791751,20.2067857 63.6791751,20.8399507 63.2886508,21.230475 L51.1228206,33.3963053 C50.7322963,33.7868296 50.0991313,33.7868296 49.708607,33.3963053 C49.3180827,33.005781 49.3180827,32.372616 49.708607,31.9820917 L61.8744372,19.8162614 Z M25,3 C12.8497355,3 3,12.8497355 3,25 L3,55 C3,67.1502645 12.8497355,77 25,77 L55,77 C67.1502645,77 77,67.1502645 77,55 L77,25 C77,12.8497355 67.1502645,3 55,3 L25,3 Z M25,0 L55,0 C68.8071187,-2.66453526e-15 80,11.1928813 80,25 L80,55 C80,68.8071187 68.8071187,80 55,80 L25,80 C11.1928813,80 -2.66453526e-14,68.8071187 -2.84217094e-14,55 L-2.84217094e-14,25 C-3.01980663e-14,11.1928813 11.1928813,2.66453526e-15 25,0 Z" id="path-1"></path>
    </defs>
    <g id="Symbols" stroke="none" stroke-width="1" fill="none" fill-rule="evenodd">
        <g id="logo-verde" transform="translate(-4.000000, -4.000000)">
            <g id="colors-/-primary-/-mint" transform="translate(4.000000, 4.000000)">
                <mask id="mask-2" fill="white">
                    <use xlink:href="#path-1"></use>
                </mask>
                <use id="Mask" fill="#1CE48C" fill-rule="nonzero" xlink:href="#path-1"></use>
                <g mask="url(#mask-2)" fill="#1CE48C" fill-rule="nonzero" id="Rectangle">
                    <g transform="translate(-9.819134, -9.819134)">
                        <rect x="0" y="0" width="100" height="100"></rect>
                    </g>
                </g>
            </g>
        </g>
    </g>
</svg>